<mxfile host="app.diagrams.net" modified="2023-07-20T09:45:33.197Z" agent="Mozilla/5.0 (Windows NT 10.0; Win64; x64) AppleWebKit/537.36 (KHTML, like Gecko) Chrome/114.0.0.0 Safari/537.36" version="21.6.3" etag="VFBpRYRQj6B4lMQMzrZR" type="github">
  <diagram name="Page-1" id="rTIbW6bO5zyPvi6QJ0ii">
    <mxGraphModel>
      <root>
        <mxCell id="0" />
        <mxCell id="1" parent="0" />
      </root>
    </mxGraphModel>
  </diagram>
</mxfile>
